<?xml version="1.0" encoding="UTF-8" standalone="no"?>
<!DOCTYPE svg PUBLIC "-//W3C//DTD SVG 1.1//EN"
 "http://www.w3.org/Graphics/SVG/1.1/DTD/svg11.dtd">
<!-- Generated by graphviz version 2.43.0 (0)
 -->
<!-- Title: 2DFA Pages: 1 -->
<svg width="402pt" height="764pt"
 viewBox="0.00 0.00 402.00 764.00" xmlns="http://www.w3.org/2000/svg" xmlns:xlink="http://www.w3.org/1999/xlink">
<g id="graph0" class="graph" transform="scale(1 1) rotate(0) translate(4 760)">
<title>2DFA</title>
<polygon fill="white" stroke="transparent" points="-4,4 -4,-760 398,-760 398,4 -4,4"/>
<!-- ✓ -->
<g id="node1" class="node">
<title>✓</title>
<ellipse fill="#bbeebb" stroke="#00aa00" stroke-width="2" cx="96" cy="-162" rx="27" ry="18"/>
<text text-anchor="middle" x="96" y="-158.3" font-family="Times,serif" font-size="14.00" fill="#00aa00">✓</text>
</g>
<!-- ✗ -->
<g id="node2" class="node">
<title>✗</title>
<ellipse fill="#eebbbb" stroke="#aa0000" stroke-width="2" cx="41" cy="-18" rx="27" ry="18"/>
<text text-anchor="middle" x="41" y="-14.3" font-family="Times,serif" font-size="14.00" fill="#aa0000">✗</text>
</g>
<!-- q0 -->
<g id="node3" class="node">
<title>q0</title>
<ellipse fill="#eeeebb" stroke="#cccc00" stroke-width="2" cx="168" cy="-450" rx="27" ry="18"/>
<text text-anchor="middle" x="168" y="-446.3" font-family="Times,serif" font-size="14.00">q0</text>
</g>
<!-- q0&#45;⊢&#45;q0 -->
<g id="node8" class="node">
<title>q0&#45;⊢&#45;q0</title>
<polygon fill="#ffffff" stroke="#ffffff" points="123,-396 69,-396 69,-360 123,-360 123,-396"/>
<text text-anchor="middle" x="96" y="-374.3" font-family="Times,serif" font-size="14.00">⊢; R</text>
</g>
<!-- q0&#45;&gt;q0&#45;⊢&#45;q0 -->
<g id="edge1" class="edge">
<title>q0&#45;&gt;q0&#45;⊢&#45;q0</title>
<path fill="none" stroke="black" d="M149.81,-436.49C136.55,-425.24 119.26,-408.62 107.73,-396.14"/>
</g>
<!-- q0&#45;⊣&#45;p0 -->
<g id="node9" class="node">
<title>q0&#45;⊣&#45;p0</title>
<polygon fill="#ffffff" stroke="#ffffff" points="195,-396 141,-396 141,-360 195,-360 195,-396"/>
<text text-anchor="middle" x="168" y="-374.3" font-family="Times,serif" font-size="14.00">⊣; L</text>
</g>
<!-- q0&#45;&gt;q0&#45;⊣&#45;p0 -->
<g id="edge3" class="edge">
<title>q0&#45;&gt;q0&#45;⊣&#45;p0</title>
<path fill="none" stroke="black" d="M168,-431.7C168,-420.85 168,-406.92 168,-396.1"/>
</g>
<!-- q0&#45;0&#45;q1 -->
<g id="node10" class="node">
<title>q0&#45;0&#45;q1</title>
<polygon fill="#ffffff" stroke="#ffffff" points="339,-396 285,-396 285,-360 339,-360 339,-396"/>
<text text-anchor="middle" x="312" y="-374.3" font-family="Times,serif" font-size="14.00">0; R</text>
</g>
<!-- q0&#45;&gt;q0&#45;0&#45;q1 -->
<g id="edge5" class="edge">
<title>q0&#45;&gt;q0&#45;0&#45;q1</title>
<path fill="none" stroke="black" d="M189.25,-438.67C214.6,-426.35 257.02,-405.73 284.76,-392.24"/>
</g>
<!-- q0&#45;1&#45;q0 -->
<g id="node11" class="node">
<title>q0&#45;1&#45;q0</title>
<polygon fill="#ffffff" stroke="#ffffff" points="267,-396 213,-396 213,-360 267,-360 267,-396"/>
<text text-anchor="middle" x="240" y="-374.3" font-family="Times,serif" font-size="14.00">1; R</text>
</g>
<!-- q0&#45;&gt;q0&#45;1&#45;q0 -->
<g id="edge7" class="edge">
<title>q0&#45;&gt;q0&#45;1&#45;q0</title>
<path fill="none" stroke="black" d="M178.58,-433.12C188.67,-422.06 203.77,-407.34 216.58,-396.04"/>
</g>
<!-- q1 -->
<g id="node4" class="node">
<title>q1</title>
<ellipse fill="none" stroke="black" cx="145" cy="-738" rx="27" ry="18"/>
<text text-anchor="middle" x="145" y="-734.3" font-family="Times,serif" font-size="14.00">q1</text>
</g>
<!-- q1&#45;⊢&#45;q1 -->
<g id="node12" class="node">
<title>q1&#45;⊢&#45;q1</title>
<polygon fill="#ffffff" stroke="#ffffff" points="62,-684 8,-684 8,-648 62,-648 62,-684"/>
<text text-anchor="middle" x="35" y="-662.3" font-family="Times,serif" font-size="14.00">⊢; R</text>
</g>
<!-- q1&#45;&gt;q1&#45;⊢&#45;q1 -->
<g id="edge9" class="edge">
<title>q1&#45;&gt;q1&#45;⊢&#45;q1</title>
<path fill="none" stroke="black" d="M123.81,-726.67C104.22,-715.49 75.6,-697.47 56.07,-684.16"/>
</g>
<!-- q1&#45;⊣&#45;✗ -->
<g id="node13" class="node">
<title>q1&#45;⊣&#45;✗</title>
<polygon fill="#ffffff" stroke="#ffffff" points="54,-612 0,-612 0,-576 54,-576 54,-612"/>
<text text-anchor="middle" x="27" y="-590.3" font-family="Times,serif" font-size="14.00">⊣; L</text>
</g>
<!-- q1&#45;&gt;q1&#45;⊣&#45;✗ -->
<g id="edge11" class="edge">
<title>q1&#45;&gt;q1&#45;⊣&#45;✗</title>
<path fill="none" stroke="black" d="M132.37,-721.8C110.25,-695.19 64.65,-640.31 41.37,-612.29"/>
</g>
<!-- q1&#45;0&#45;q2 -->
<g id="node14" class="node">
<title>q1&#45;0&#45;q2</title>
<polygon fill="#ffffff" stroke="#ffffff" points="172,-684 118,-684 118,-648 172,-648 172,-684"/>
<text text-anchor="middle" x="145" y="-662.3" font-family="Times,serif" font-size="14.00">0; R</text>
</g>
<!-- q1&#45;&gt;q1&#45;0&#45;q2 -->
<g id="edge13" class="edge">
<title>q1&#45;&gt;q1&#45;0&#45;q2</title>
<path fill="none" stroke="black" d="M145,-719.7C145,-708.85 145,-694.92 145,-684.1"/>
</g>
<!-- q1&#45;1&#45;q1 -->
<g id="node15" class="node">
<title>q1&#45;1&#45;q1</title>
<polygon fill="#ffffff" stroke="#ffffff" points="244,-684 190,-684 190,-648 244,-648 244,-684"/>
<text text-anchor="middle" x="217" y="-662.3" font-family="Times,serif" font-size="14.00">1; R</text>
</g>
<!-- q1&#45;&gt;q1&#45;1&#45;q1 -->
<g id="edge15" class="edge">
<title>q1&#45;&gt;q1&#45;1&#45;q1</title>
<path fill="none" stroke="black" d="M155.58,-721.12C165.67,-710.06 180.77,-695.34 193.58,-684.04"/>
</g>
<!-- q2 -->
<g id="node5" class="node">
<title>q2</title>
<ellipse fill="none" stroke="black" cx="145" cy="-594" rx="27" ry="18"/>
<text text-anchor="middle" x="145" y="-590.3" font-family="Times,serif" font-size="14.00">q2</text>
</g>
<!-- q2&#45;⊢&#45;q2 -->
<g id="node16" class="node">
<title>q2&#45;⊢&#45;q2</title>
<polygon fill="#ffffff" stroke="#ffffff" points="85,-540 31,-540 31,-504 85,-504 85,-540"/>
<text text-anchor="middle" x="58" y="-518.3" font-family="Times,serif" font-size="14.00">⊢; R</text>
</g>
<!-- q2&#45;&gt;q2&#45;⊢&#45;q2 -->
<g id="edge17" class="edge">
<title>q2&#45;&gt;q2&#45;⊢&#45;q2</title>
<path fill="none" stroke="black" d="M125.47,-581.44C109.64,-570.18 87.95,-552.93 73.34,-540.08"/>
</g>
<!-- q2&#45;⊣&#45;✗ -->
<g id="node17" class="node">
<title>q2&#45;⊣&#45;✗</title>
<polygon fill="#ffffff" stroke="#ffffff" points="104,-468 50,-468 50,-432 104,-432 104,-468"/>
<text text-anchor="middle" x="77" y="-446.3" font-family="Times,serif" font-size="14.00">⊣; L</text>
</g>
<!-- q2&#45;&gt;q2&#45;⊣&#45;✗ -->
<g id="edge19" class="edge">
<title>q2&#45;&gt;q2&#45;⊣&#45;✗</title>
<path fill="none" stroke="black" d="M137.2,-576.71C124.29,-549.76 98.6,-496.11 85.34,-468.43"/>
</g>
<!-- q2&#45;0&#45;q0 -->
<g id="node18" class="node">
<title>q2&#45;0&#45;q0</title>
<polygon fill="#ffffff" stroke="#ffffff" points="195,-540 141,-540 141,-504 195,-504 195,-540"/>
<text text-anchor="middle" x="168" y="-518.3" font-family="Times,serif" font-size="14.00">0; R</text>
</g>
<!-- q2&#45;&gt;q2&#45;0&#45;q0 -->
<g id="edge21" class="edge">
<title>q2&#45;&gt;q2&#45;0&#45;q0</title>
<path fill="none" stroke="black" d="M150.57,-576.05C154.13,-565.21 158.74,-551.18 162.32,-540.28"/>
</g>
<!-- q2&#45;1&#45;q2 -->
<g id="node19" class="node">
<title>q2&#45;1&#45;q2</title>
<polygon fill="#ffffff" stroke="#ffffff" points="267,-540 213,-540 213,-504 267,-504 267,-540"/>
<text text-anchor="middle" x="240" y="-518.3" font-family="Times,serif" font-size="14.00">1; R</text>
</g>
<!-- q2&#45;&gt;q2&#45;1&#45;q2 -->
<g id="edge23" class="edge">
<title>q2&#45;&gt;q2&#45;1&#45;q2</title>
<path fill="none" stroke="black" d="M159.09,-578.5C173.36,-566.88 195.38,-550.62 212.95,-538.7"/>
</g>
<!-- p0 -->
<g id="node6" class="node">
<title>p0</title>
<ellipse fill="none" stroke="black" cx="204" cy="-306" rx="27" ry="18"/>
<text text-anchor="middle" x="204" y="-302.3" font-family="Times,serif" font-size="14.00">p0</text>
</g>
<!-- p0&#45;⊢&#45;✓ -->
<g id="node20" class="node">
<title>p0&#45;⊢&#45;✓</title>
<polygon fill="#ffffff" stroke="#ffffff" points="123,-252 69,-252 69,-216 123,-216 123,-252"/>
<text text-anchor="middle" x="96" y="-230.3" font-family="Times,serif" font-size="14.00">⊢; R</text>
</g>
<!-- p0&#45;&gt;p0&#45;⊢&#45;✓ -->
<g id="edge25" class="edge">
<title>p0&#45;&gt;p0&#45;⊢&#45;✓</title>
<path fill="none" stroke="black" d="M185.19,-292.81C167.78,-281.53 141.74,-264.65 122.28,-252.03"/>
</g>
<!-- p0&#45;⊣&#45;p0 -->
<g id="node21" class="node">
<title>p0&#45;⊣&#45;p0</title>
<polygon fill="#ffffff" stroke="#ffffff" points="195,-252 141,-252 141,-216 195,-216 195,-252"/>
<text text-anchor="middle" x="168" y="-230.3" font-family="Times,serif" font-size="14.00">⊣; L</text>
</g>
<!-- p0&#45;&gt;p0&#45;⊣&#45;p0 -->
<g id="edge27" class="edge">
<title>p0&#45;&gt;p0&#45;⊣&#45;p0</title>
<path fill="none" stroke="black" d="M190.73,-290.15C183.6,-279 175.64,-263.7 170.88,-252.04"/>
</g>
<!-- p0&#45;0&#45;p0 -->
<g id="node22" class="node">
<title>p0&#45;0&#45;p0</title>
<polygon fill="#ffffff" stroke="#ffffff" points="267,-252 213,-252 213,-216 267,-216 267,-252"/>
<text text-anchor="middle" x="240" y="-230.3" font-family="Times,serif" font-size="14.00">0; L</text>
</g>
<!-- p0&#45;&gt;p0&#45;0&#45;p0 -->
<g id="edge29" class="edge">
<title>p0&#45;&gt;p0&#45;0&#45;p0</title>
<path fill="none" stroke="black" d="M206.84,-288.05C211.26,-277.21 218.47,-263.18 225.2,-252.28"/>
</g>
<!-- p0&#45;1&#45;p1 -->
<g id="node23" class="node">
<title>p0&#45;1&#45;p1</title>
<polygon fill="#ffffff" stroke="#ffffff" points="339,-252 285,-252 285,-216 339,-216 339,-252"/>
<text text-anchor="middle" x="312" y="-230.3" font-family="Times,serif" font-size="14.00">1; L</text>
</g>
<!-- p0&#45;&gt;p0&#45;1&#45;p1 -->
<g id="edge31" class="edge">
<title>p0&#45;&gt;p0&#45;1&#45;p1</title>
<path fill="none" stroke="black" d="M222.81,-292.81C240.22,-281.53 266.26,-264.65 285.72,-252.03"/>
</g>
<!-- p1 -->
<g id="node7" class="node">
<title>p1</title>
<ellipse fill="none" stroke="black" cx="295" cy="-162" rx="27" ry="18"/>
<text text-anchor="middle" x="295" y="-158.3" font-family="Times,serif" font-size="14.00">p1</text>
</g>
<!-- p1&#45;⊢&#45;✗ -->
<g id="node24" class="node">
<title>p1&#45;⊢&#45;✗</title>
<polygon fill="#ffffff" stroke="#ffffff" points="151,-108 97,-108 97,-72 151,-72 151,-108"/>
<text text-anchor="middle" x="124" y="-86.3" font-family="Times,serif" font-size="14.00">⊢; R</text>
</g>
<!-- p1&#45;&gt;p1&#45;⊢&#45;✗ -->
<g id="edge33" class="edge">
<title>p1&#45;&gt;p1&#45;⊢&#45;✗</title>
<path fill="none" stroke="black" d="M272.64,-151.85C241.41,-139.06 184.78,-115.88 151.16,-102.12"/>
</g>
<!-- p1&#45;⊣&#45;p1 -->
<g id="node25" class="node">
<title>p1&#45;⊣&#45;p1</title>
<polygon fill="#ffffff" stroke="#ffffff" points="250,-108 196,-108 196,-72 250,-72 250,-108"/>
<text text-anchor="middle" x="223" y="-86.3" font-family="Times,serif" font-size="14.00">⊣; L</text>
</g>
<!-- p1&#45;&gt;p1&#45;⊣&#45;p1 -->
<g id="edge35" class="edge">
<title>p1&#45;&gt;p1&#45;⊣&#45;p1</title>
<path fill="none" stroke="black" d="M276.81,-148.49C263.55,-137.24 246.26,-120.62 234.73,-108.14"/>
</g>
<!-- p1&#45;0&#45;p1 -->
<g id="node26" class="node">
<title>p1&#45;0&#45;p1</title>
<polygon fill="#ffffff" stroke="#ffffff" points="322,-108 268,-108 268,-72 322,-72 322,-108"/>
<text text-anchor="middle" x="295" y="-86.3" font-family="Times,serif" font-size="14.00">0; L</text>
</g>
<!-- p1&#45;&gt;p1&#45;0&#45;p1 -->
<g id="edge37" class="edge">
<title>p1&#45;&gt;p1&#45;0&#45;p1</title>
<path fill="none" stroke="black" d="M289.16,-144.41C287.98,-133.58 287.95,-119.45 289.07,-108.45"/>
</g>
<!-- p1&#45;1&#45;p0 -->
<g id="node27" class="node">
<title>p1&#45;1&#45;p0</title>
<polygon fill="#ffffff" stroke="#ffffff" points="394,-108 340,-108 340,-72 394,-72 394,-108"/>
<text text-anchor="middle" x="367" y="-86.3" font-family="Times,serif" font-size="14.00">1; L</text>
</g>
<!-- p1&#45;&gt;p1&#45;1&#45;p0 -->
<g id="edge39" class="edge">
<title>p1&#45;&gt;p1&#45;1&#45;p0</title>
<path fill="none" stroke="black" d="M309.57,-146.83C321.08,-135.65 337.17,-120 349.4,-108.11"/>
</g>
<!-- q0&#45;⊢&#45;q0&#45;&gt;q0 -->
<g id="edge2" class="edge">
<title>q0&#45;⊢&#45;q0&#45;&gt;q0</title>
<path fill="none" stroke="black" d="M119.42,-396.04C129.53,-404.96 141.06,-416.01 150.44,-425.7"/>
<polygon fill="black" stroke="black" points="148.02,-428.24 157.42,-433.12 153.11,-423.44 148.02,-428.24"/>
</g>
<!-- q0&#45;⊣&#45;p0&#45;&gt;p0 -->
<g id="edge4" class="edge">
<title>q0&#45;⊣&#45;p0&#45;&gt;p0</title>
<path fill="none" stroke="black" d="M176.9,-359.7C181.16,-351.4 186.35,-341.31 191.05,-332.19"/>
<polygon fill="black" stroke="black" points="194.24,-333.64 195.7,-323.14 188.01,-330.44 194.24,-333.64"/>
</g>
<!-- q0&#45;0&#45;q1&#45;&gt;q1 -->
<g id="edge6" class="edge">
<title>q0&#45;0&#45;q1&#45;&gt;q1</title>
<path fill="none" stroke="black" d="M308.56,-396.41C303.59,-423.1 295,-475.81 295,-521 295,-595 295,-595 295,-595 295,-638.74 283.69,-652.84 253,-684 232.61,-704.7 202.49,-718.56 179.23,-726.89"/>
<polygon fill="black" stroke="black" points="178.07,-723.59 169.73,-730.13 180.32,-730.22 178.07,-723.59"/>
</g>
<!-- q0&#45;1&#45;q0&#45;&gt;q0 -->
<g id="edge8" class="edge">
<title>q0&#45;1&#45;q0&#45;&gt;q0</title>
<path fill="none" stroke="black" d="M228.27,-396.14C218.9,-406.28 205.73,-419.15 194.01,-429.66"/>
<polygon fill="black" stroke="black" points="191.42,-427.27 186.19,-436.49 196.02,-432.54 191.42,-427.27"/>
</g>
<!-- q1&#45;⊢&#45;q1&#45;&gt;q1 -->
<g id="edge10" class="edge">
<title>q1&#45;⊢&#45;q1&#45;&gt;q1</title>
<path fill="none" stroke="black" d="M62.19,-680.8C80.02,-691.24 102.99,-705.73 120.29,-717.37"/>
<polygon fill="black" stroke="black" points="118.54,-720.42 128.77,-723.17 122.49,-714.64 118.54,-720.42"/>
</g>
<!-- q1&#45;⊣&#45;✗&#45;&gt;✗ -->
<g id="edge12" class="edge">
<title>q1&#45;⊣&#45;✗&#45;&gt;✗</title>
<path fill="none" stroke="black" d="M22.14,-575.67C15.13,-549.08 3,-496.5 3,-451 3,-451 3,-451 3,-161 3,-119.41 18.4,-73.22 29.6,-45.14"/>
<polygon fill="black" stroke="black" points="32.93,-46.24 33.49,-35.66 26.45,-43.58 32.93,-46.24"/>
</g>
<!-- q1&#45;0&#45;q2&#45;&gt;q2 -->
<g id="edge14" class="edge">
<title>q1&#45;0&#45;q2&#45;&gt;q2</title>
<path fill="none" stroke="black" d="M145,-647.7C145,-639.98 145,-630.71 145,-622.11"/>
<polygon fill="black" stroke="black" points="148.5,-622.1 145,-612.1 141.5,-622.1 148.5,-622.1"/>
</g>
<!-- q1&#45;1&#45;q1&#45;&gt;q1 -->
<g id="edge16" class="edge">
<title>q1&#45;1&#45;q1&#45;&gt;q1</title>
<path fill="none" stroke="black" d="M205.27,-684.14C195.9,-694.28 182.73,-707.15 171.01,-717.66"/>
<polygon fill="black" stroke="black" points="168.42,-715.27 163.19,-724.49 173.02,-720.54 168.42,-715.27"/>
</g>
<!-- q2&#45;⊢&#45;q2&#45;&gt;q2 -->
<g id="edge18" class="edge">
<title>q2&#45;⊢&#45;q2&#45;&gt;q2</title>
<path fill="none" stroke="black" d="M85.07,-540.04C97.83,-549.51 112.73,-561.39 124.55,-571.49"/>
<polygon fill="black" stroke="black" points="122.35,-574.22 132.19,-578.15 126.95,-568.94 122.35,-574.22"/>
</g>
<!-- q2&#45;⊣&#45;✗&#45;&gt;✗ -->
<g id="edge20" class="edge">
<title>q2&#45;⊣&#45;✗&#45;&gt;✗</title>
<path fill="none" stroke="black" d="M69.71,-431.87C59.2,-405.53 41,-353.29 41,-307 41,-307 41,-307 41,-161 41,-121 41,-74.65 41,-46.08"/>
<polygon fill="black" stroke="black" points="44.5,-46.05 41,-36.05 37.5,-46.05 44.5,-46.05"/>
</g>
<!-- q2&#45;0&#45;q0&#45;&gt;q0 -->
<g id="edge22" class="edge">
<title>q2&#45;0&#45;q0&#45;&gt;q0</title>
<path fill="none" stroke="black" d="M168,-503.7C168,-495.98 168,-486.71 168,-478.11"/>
<polygon fill="black" stroke="black" points="171.5,-478.1 168,-468.1 164.5,-478.1 171.5,-478.1"/>
</g>
<!-- q2&#45;1&#45;q2&#45;&gt;q2 -->
<g id="edge24" class="edge">
<title>q2&#45;1&#45;q2&#45;&gt;q2</title>
<path fill="none" stroke="black" d="M222.52,-540.24C208.82,-551.16 189.72,-565.23 173.82,-576.09"/>
<polygon fill="black" stroke="black" points="171.73,-573.28 165.38,-581.75 175.63,-579.09 171.73,-573.28"/>
</g>
<!-- p0&#45;⊢&#45;✓&#45;&gt;✓ -->
<g id="edge26" class="edge">
<title>p0&#45;⊢&#45;✓&#45;&gt;✓</title>
<path fill="none" stroke="black" d="M96,-215.7C96,-207.98 96,-198.71 96,-190.11"/>
<polygon fill="black" stroke="black" points="99.5,-190.1 96,-180.1 92.5,-190.1 99.5,-190.1"/>
</g>
<!-- p0&#45;⊣&#45;p0&#45;&gt;p0 -->
<g id="edge28" class="edge">
<title>p0&#45;⊣&#45;p0&#45;&gt;p0</title>
<path fill="none" stroke="black" d="M182.8,-252.28C187.74,-260.29 192.94,-269.98 197.11,-278.86"/>
<polygon fill="black" stroke="black" points="193.93,-280.32 201.16,-288.05 200.33,-277.49 193.93,-280.32"/>
</g>
<!-- p0&#45;0&#45;p0&#45;&gt;p0 -->
<g id="edge30" class="edge">
<title>p0&#45;0&#45;p0&#45;&gt;p0</title>
<path fill="none" stroke="black" d="M237.12,-252.04C233.51,-260.87 228.07,-271.8 222.54,-281.43"/>
<polygon fill="black" stroke="black" points="219.45,-279.79 217.27,-290.15 225.44,-283.4 219.45,-279.79"/>
</g>
<!-- p0&#45;1&#45;p1&#45;&gt;p1 -->
<g id="edge32" class="edge">
<title>p0&#45;1&#45;p1&#45;&gt;p1</title>
<path fill="none" stroke="black" d="M307.8,-215.7C305.9,-207.9 303.62,-198.51 301.52,-189.83"/>
<polygon fill="black" stroke="black" points="304.92,-189 299.15,-180.1 298.11,-190.65 304.92,-189"/>
</g>
<!-- p1&#45;⊢&#45;✗&#45;&gt;✗ -->
<g id="edge34" class="edge">
<title>p1&#45;⊢&#45;✗&#45;&gt;✗</title>
<path fill="none" stroke="black" d="M103.48,-71.7C91.86,-61.89 77.26,-49.58 65.09,-39.32"/>
<polygon fill="black" stroke="black" points="67.03,-36.37 57.12,-32.6 62.51,-41.72 67.03,-36.37"/>
</g>
<!-- p1&#45;⊣&#45;p1&#45;&gt;p1 -->
<g id="edge36" class="edge">
<title>p1&#45;⊣&#45;p1&#45;&gt;p1</title>
<path fill="none" stroke="black" d="M246.42,-108.04C256.53,-116.96 268.06,-128.01 277.44,-137.7"/>
<polygon fill="black" stroke="black" points="275.02,-140.24 284.42,-145.12 280.11,-135.44 275.02,-140.24"/>
</g>
<!-- p1&#45;0&#45;p1&#45;&gt;p1 -->
<g id="edge38" class="edge">
<title>p1&#45;0&#45;p1&#45;&gt;p1</title>
<path fill="none" stroke="black" d="M300.93,-108.45C301.73,-116.27 301.94,-125.67 301.58,-134.34"/>
<polygon fill="black" stroke="black" points="298.08,-134.18 300.84,-144.41 305.06,-134.69 298.08,-134.18"/>
</g>
<!-- p1&#45;1&#45;p0&#45;&gt;p0 -->
<g id="edge40" class="edge">
<title>p1&#45;1&#45;p0&#45;&gt;p0</title>
<path fill="none" stroke="black" d="M370.31,-108.2C375.42,-140.22 381.46,-209.57 348,-252 322.32,-284.56 274.63,-297.12 241.19,-301.96"/>
<polygon fill="black" stroke="black" points="240.36,-298.54 230.88,-303.28 241.25,-305.48 240.36,-298.54"/>
</g>
</g>
</svg>
