<?xml version="1.0" encoding="UTF-8" standalone="no"?>
<!DOCTYPE svg PUBLIC "-//W3C//DTD SVG 1.1//EN"
 "http://www.w3.org/Graphics/SVG/1.1/DTD/svg11.dtd">
<!-- Generated by graphviz version 2.43.0 (0)
 -->
<!-- Title: 2DFA Pages: 1 -->
<svg width="420pt" height="620pt"
 viewBox="0.00 0.00 420.00 620.00" xmlns="http://www.w3.org/2000/svg" xmlns:xlink="http://www.w3.org/1999/xlink">
<g id="graph0" class="graph" transform="scale(1 1) rotate(0) translate(4 616)">
<title>2DFA</title>
<polygon fill="white" stroke="transparent" points="-4,4 -4,-616 416,-616 416,4 -4,4"/>
<!-- ✓ -->
<g id="node1" class="node">
<title>✓</title>
<ellipse fill="#bbeebb" stroke="#00aa00" stroke-width="2" cx="385" cy="-18" rx="27" ry="18"/>
<text text-anchor="middle" x="385" y="-14.3" font-family="Times,serif" font-size="14.00" fill="#00aa00">✓</text>
</g>
<!-- ✗ -->
<g id="node2" class="node">
<title>✗</title>
<ellipse fill="#eebbbb" stroke="#aa0000" stroke-width="2" cx="142" cy="-18" rx="27" ry="18"/>
<text text-anchor="middle" x="142" y="-14.3" font-family="Times,serif" font-size="14.00" fill="#aa0000">✗</text>
</g>
<!-- c0 -->
<g id="node3" class="node">
<title>c0</title>
<ellipse fill="none" stroke="black" cx="241" cy="-162" rx="27" ry="18"/>
<text text-anchor="middle" x="241" y="-158.3" font-family="Times,serif" font-size="14.00">c0</text>
</g>
<!-- c0&#45;⊢&#45;✗ -->
<g id="node7" class="node">
<title>c0&#45;⊢&#45;✗</title>
<polygon fill="#ffffff" stroke="#ffffff" points="196,-108 142,-108 142,-72 196,-72 196,-108"/>
<text text-anchor="middle" x="169" y="-86.3" font-family="Times,serif" font-size="14.00">⊢; R</text>
</g>
<!-- c0&#45;&gt;c0&#45;⊢&#45;✗ -->
<g id="edge1" class="edge">
<title>c0&#45;&gt;c0&#45;⊢&#45;✗</title>
<path fill="none" stroke="black" d="M226.43,-146.83C214.92,-135.65 198.83,-120 186.6,-108.11"/>
</g>
<!-- c0&#45;⊣&#45;c0 -->
<g id="node8" class="node">
<title>c0&#45;⊣&#45;c0</title>
<polygon fill="#ffffff" stroke="#ffffff" points="268,-108 214,-108 214,-72 268,-72 268,-108"/>
<text text-anchor="middle" x="241" y="-86.3" font-family="Times,serif" font-size="14.00">⊣; L</text>
</g>
<!-- c0&#45;&gt;c0&#45;⊣&#45;c0 -->
<g id="edge3" class="edge">
<title>c0&#45;&gt;c0&#45;⊣&#45;c0</title>
<path fill="none" stroke="black" d="M235.16,-144.41C233.98,-133.58 233.95,-119.45 235.07,-108.45"/>
</g>
<!-- c0&#45;0&#45;✓ -->
<g id="node9" class="node">
<title>c0&#45;0&#45;✓</title>
<polygon fill="#ffffff" stroke="#ffffff" points="412,-108 358,-108 358,-72 412,-72 412,-108"/>
<text text-anchor="middle" x="385" y="-86.3" font-family="Times,serif" font-size="14.00">0; R</text>
</g>
<!-- c0&#45;&gt;c0&#45;0&#45;✓ -->
<g id="edge5" class="edge">
<title>c0&#45;&gt;c0&#45;0&#45;✓</title>
<path fill="none" stroke="black" d="M262.25,-150.67C287.6,-138.35 330.02,-117.73 357.76,-104.24"/>
</g>
<!-- c0&#45;1&#45;✗ -->
<g id="node10" class="node">
<title>c0&#45;1&#45;✗</title>
<polygon fill="#ffffff" stroke="#ffffff" points="340,-108 286,-108 286,-72 340,-72 340,-108"/>
<text text-anchor="middle" x="313" y="-86.3" font-family="Times,serif" font-size="14.00">1; R</text>
</g>
<!-- c0&#45;&gt;c0&#45;1&#45;✗ -->
<g id="edge7" class="edge">
<title>c0&#45;&gt;c0&#45;1&#45;✗</title>
<path fill="none" stroke="black" d="M255.57,-146.83C267.08,-135.65 283.17,-120 295.4,-108.11"/>
</g>
<!-- c1 -->
<g id="node4" class="node">
<title>c1</title>
<ellipse fill="none" stroke="black" cx="171" cy="-306" rx="27" ry="18"/>
<text text-anchor="middle" x="171" y="-302.3" font-family="Times,serif" font-size="14.00">c1</text>
</g>
<!-- c1&#45;⊢&#45;✗ -->
<g id="node11" class="node">
<title>c1&#45;⊢&#45;✗</title>
<polygon fill="#ffffff" stroke="#ffffff" points="141,-180 87,-180 87,-144 141,-144 141,-180"/>
<text text-anchor="middle" x="114" y="-158.3" font-family="Times,serif" font-size="14.00">⊢; R</text>
</g>
<!-- c1&#45;&gt;c1&#45;⊢&#45;✗ -->
<g id="edge9" class="edge">
<title>c1&#45;&gt;c1&#45;⊢&#45;✗</title>
<path fill="none" stroke="black" d="M157.88,-290.26C149.56,-280.16 139.22,-266.08 133,-252 122.52,-228.3 117.67,-198.44 115.54,-180.04"/>
</g>
<!-- c1&#45;⊣&#45;c1 -->
<g id="node12" class="node">
<title>c1&#45;⊣&#45;c1</title>
<polygon fill="#ffffff" stroke="#ffffff" points="196,-252 142,-252 142,-216 196,-216 196,-252"/>
<text text-anchor="middle" x="169" y="-230.3" font-family="Times,serif" font-size="14.00">⊣; L</text>
</g>
<!-- c1&#45;&gt;c1&#45;⊣&#45;c1 -->
<g id="edge11" class="edge">
<title>c1&#45;&gt;c1&#45;⊣&#45;c1</title>
<path fill="none" stroke="black" d="M164.69,-288.41C163.19,-277.58 162.76,-263.45 163.57,-252.45"/>
</g>
<!-- c1&#45;0&#45;c0 -->
<g id="node13" class="node">
<title>c1&#45;0&#45;c0</title>
<polygon fill="#ffffff" stroke="#ffffff" points="268,-252 214,-252 214,-216 268,-216 268,-252"/>
<text text-anchor="middle" x="241" y="-230.3" font-family="Times,serif" font-size="14.00">0; L</text>
</g>
<!-- c1&#45;&gt;c1&#45;0&#45;c0 -->
<g id="edge13" class="edge">
<title>c1&#45;&gt;c1&#45;0&#45;c0</title>
<path fill="none" stroke="black" d="M185.5,-290.5C196.64,-279.36 212.04,-263.96 223.8,-252.2"/>
</g>
<!-- c1&#45;1&#45;c0 -->
<g id="node14" class="node">
<title>c1&#45;1&#45;c0</title>
<polygon fill="#ffffff" stroke="#ffffff" points="340,-252 286,-252 286,-216 340,-216 340,-252"/>
<text text-anchor="middle" x="313" y="-230.3" font-family="Times,serif" font-size="14.00">1; L</text>
</g>
<!-- c1&#45;&gt;c1&#45;1&#45;c0 -->
<g id="edge15" class="edge">
<title>c1&#45;&gt;c1&#45;1&#45;c0</title>
<path fill="none" stroke="black" d="M192.26,-294.52C217.17,-282.24 258.5,-261.86 285.75,-248.43"/>
</g>
<!-- c2 -->
<g id="node5" class="node">
<title>c2</title>
<ellipse fill="none" stroke="black" cx="99" cy="-450" rx="27" ry="18"/>
<text text-anchor="middle" x="99" y="-446.3" font-family="Times,serif" font-size="14.00">c2</text>
</g>
<!-- c2&#45;⊢&#45;✗ -->
<g id="node15" class="node">
<title>c2&#45;⊢&#45;✗</title>
<polygon fill="#ffffff" stroke="#ffffff" points="74,-324 20,-324 20,-288 74,-288 74,-324"/>
<text text-anchor="middle" x="47" y="-302.3" font-family="Times,serif" font-size="14.00">⊢; R</text>
</g>
<!-- c2&#45;&gt;c2&#45;⊢&#45;✗ -->
<g id="edge17" class="edge">
<title>c2&#45;&gt;c2&#45;⊢&#45;✗</title>
<path fill="none" stroke="black" d="M86.1,-433.77C78.23,-423.68 68.63,-409.8 63,-396 53.34,-372.31 49.49,-342.7 47.97,-324.32"/>
</g>
<!-- c2&#45;⊣&#45;c2 -->
<g id="node16" class="node">
<title>c2&#45;⊣&#45;c2</title>
<polygon fill="#ffffff" stroke="#ffffff" points="126,-396 72,-396 72,-360 126,-360 126,-396"/>
<text text-anchor="middle" x="99" y="-374.3" font-family="Times,serif" font-size="14.00">⊣; L</text>
</g>
<!-- c2&#45;&gt;c2&#45;⊣&#45;c2 -->
<g id="edge19" class="edge">
<title>c2&#45;&gt;c2&#45;⊣&#45;c2</title>
<path fill="none" stroke="black" d="M93.16,-432.41C91.98,-421.58 91.95,-407.45 93.07,-396.45"/>
</g>
<!-- c2&#45;0&#45;c1 -->
<g id="node17" class="node">
<title>c2&#45;0&#45;c1</title>
<polygon fill="#ffffff" stroke="#ffffff" points="198,-396 144,-396 144,-360 198,-360 198,-396"/>
<text text-anchor="middle" x="171" y="-374.3" font-family="Times,serif" font-size="14.00">0; L</text>
</g>
<!-- c2&#45;&gt;c2&#45;0&#45;c1 -->
<g id="edge21" class="edge">
<title>c2&#45;&gt;c2&#45;0&#45;c1</title>
<path fill="none" stroke="black" d="M113.57,-434.83C125.08,-423.65 141.17,-408 153.4,-396.11"/>
</g>
<!-- c2&#45;1&#45;c1 -->
<g id="node18" class="node">
<title>c2&#45;1&#45;c1</title>
<polygon fill="#ffffff" stroke="#ffffff" points="270,-396 216,-396 216,-360 270,-360 270,-396"/>
<text text-anchor="middle" x="243" y="-374.3" font-family="Times,serif" font-size="14.00">1; L</text>
</g>
<!-- c2&#45;&gt;c2&#45;1&#45;c1 -->
<g id="edge23" class="edge">
<title>c2&#45;&gt;c2&#45;1&#45;c1</title>
<path fill="none" stroke="black" d="M120.25,-438.67C145.6,-426.35 188.02,-405.73 215.76,-392.24"/>
</g>
<!-- p -->
<g id="node6" class="node">
<title>p</title>
<ellipse fill="#eeeebb" stroke="#cccc00" stroke-width="2" cx="171" cy="-594" rx="27" ry="18"/>
<text text-anchor="middle" x="171" y="-590.3" font-family="Times,serif" font-size="14.00">p</text>
</g>
<!-- p&#45;⊢&#45;p -->
<g id="node19" class="node">
<title>p&#45;⊢&#45;p</title>
<polygon fill="#ffffff" stroke="#ffffff" points="54,-540 0,-540 0,-504 54,-504 54,-540"/>
<text text-anchor="middle" x="27" y="-518.3" font-family="Times,serif" font-size="14.00">⊢; R</text>
</g>
<!-- p&#45;&gt;p&#45;⊢&#45;p -->
<g id="edge25" class="edge">
<title>p&#45;&gt;p&#45;⊢&#45;p</title>
<path fill="none" stroke="black" d="M148.09,-584.13C122.45,-572.8 81.3,-552.98 54.11,-538.99"/>
</g>
<!-- p&#45;⊣&#45;c2 -->
<g id="node20" class="node">
<title>p&#45;⊣&#45;c2</title>
<polygon fill="#ffffff" stroke="#ffffff" points="126,-540 72,-540 72,-504 126,-504 126,-540"/>
<text text-anchor="middle" x="99" y="-518.3" font-family="Times,serif" font-size="14.00">⊣; L</text>
</g>
<!-- p&#45;&gt;p&#45;⊣&#45;c2 -->
<g id="edge27" class="edge">
<title>p&#45;&gt;p&#45;⊣&#45;c2</title>
<path fill="none" stroke="black" d="M156.43,-578.83C144.92,-567.65 128.83,-552 116.6,-540.11"/>
</g>
<!-- p&#45;0&#45;p -->
<g id="node21" class="node">
<title>p&#45;0&#45;p</title>
<polygon fill="#ffffff" stroke="#ffffff" points="198,-540 144,-540 144,-504 198,-504 198,-540"/>
<text text-anchor="middle" x="171" y="-518.3" font-family="Times,serif" font-size="14.00">0; R</text>
</g>
<!-- p&#45;&gt;p&#45;0&#45;p -->
<g id="edge29" class="edge">
<title>p&#45;&gt;p&#45;0&#45;p</title>
<path fill="none" stroke="black" d="M165.16,-576.41C163.98,-565.58 163.95,-551.45 165.07,-540.45"/>
</g>
<!-- p&#45;1&#45;p -->
<g id="node22" class="node">
<title>p&#45;1&#45;p</title>
<polygon fill="#ffffff" stroke="#ffffff" points="270,-540 216,-540 216,-504 270,-504 270,-540"/>
<text text-anchor="middle" x="243" y="-518.3" font-family="Times,serif" font-size="14.00">1; R</text>
</g>
<!-- p&#45;&gt;p&#45;1&#45;p -->
<g id="edge31" class="edge">
<title>p&#45;&gt;p&#45;1&#45;p</title>
<path fill="none" stroke="black" d="M181.58,-577.12C191.67,-566.06 206.77,-551.34 219.58,-540.04"/>
</g>
<!-- c0&#45;⊢&#45;✗&#45;&gt;✗ -->
<g id="edge2" class="edge">
<title>c0&#45;⊢&#45;✗&#45;&gt;✗</title>
<path fill="none" stroke="black" d="M162.33,-71.7C159.24,-63.7 155.51,-54.02 152.09,-45.15"/>
<polygon fill="black" stroke="black" points="155.28,-43.69 148.41,-35.62 148.74,-46.21 155.28,-43.69"/>
</g>
<!-- c0&#45;⊣&#45;c0&#45;&gt;c0 -->
<g id="edge4" class="edge">
<title>c0&#45;⊣&#45;c0&#45;&gt;c0</title>
<path fill="none" stroke="black" d="M246.93,-108.45C247.73,-116.27 247.94,-125.67 247.58,-134.34"/>
<polygon fill="black" stroke="black" points="244.08,-134.18 246.84,-144.41 251.06,-134.69 244.08,-134.18"/>
</g>
<!-- c0&#45;0&#45;✓&#45;&gt;✓ -->
<g id="edge6" class="edge">
<title>c0&#45;0&#45;✓&#45;&gt;✓</title>
<path fill="none" stroke="black" d="M385,-71.7C385,-63.98 385,-54.71 385,-46.11"/>
<polygon fill="black" stroke="black" points="388.5,-46.1 385,-36.1 381.5,-46.1 388.5,-46.1"/>
</g>
<!-- c0&#45;1&#45;✗&#45;&gt;✗ -->
<g id="edge8" class="edge">
<title>c0&#45;1&#45;✗&#45;&gt;✗</title>
<path fill="none" stroke="black" d="M285.96,-75.99C282.95,-74.62 279.92,-73.26 277,-72 242.41,-57.06 202.14,-41.48 174.64,-31.11"/>
<polygon fill="black" stroke="black" points="175.71,-27.78 165.12,-27.54 173.25,-34.33 175.71,-27.78"/>
</g>
<!-- c1&#45;⊢&#45;✗&#45;&gt;✗ -->
<g id="edge10" class="edge">
<title>c1&#45;⊢&#45;✗&#45;&gt;✗</title>
<path fill="none" stroke="black" d="M117.38,-143.87C122.17,-119.56 130.99,-74.82 136.67,-46.01"/>
<polygon fill="black" stroke="black" points="140.11,-46.68 138.61,-36.19 133.24,-45.32 140.11,-46.68"/>
</g>
<!-- c1&#45;⊣&#45;c1&#45;&gt;c1 -->
<g id="edge12" class="edge">
<title>c1&#45;⊣&#45;c1&#45;&gt;c1</title>
<path fill="none" stroke="black" d="M175.41,-252.28C176.43,-260.03 176.92,-269.36 176.82,-278.01"/>
<polygon fill="black" stroke="black" points="173.32,-277.92 176.39,-288.05 180.31,-278.21 173.32,-277.92"/>
</g>
<!-- c1&#45;0&#45;c0&#45;&gt;c0 -->
<g id="edge14" class="edge">
<title>c1&#45;0&#45;c0&#45;&gt;c0</title>
<path fill="none" stroke="black" d="M241,-215.7C241,-207.98 241,-198.71 241,-190.11"/>
<polygon fill="black" stroke="black" points="244.5,-190.1 241,-180.1 237.5,-190.1 244.5,-190.1"/>
</g>
<!-- c1&#45;1&#45;c0&#45;&gt;c0 -->
<g id="edge16" class="edge">
<title>c1&#45;1&#45;c0&#45;&gt;c0</title>
<path fill="none" stroke="black" d="M295.2,-215.7C285.51,-206.28 273.44,-194.53 263.14,-184.53"/>
<polygon fill="black" stroke="black" points="265.3,-181.74 255.69,-177.28 260.42,-186.76 265.3,-181.74"/>
</g>
<!-- c2&#45;⊢&#45;✗&#45;&gt;✗ -->
<g id="edge18" class="edge">
<title>c2&#45;⊢&#45;✗&#45;&gt;✗</title>
<path fill="none" stroke="black" d="M48.71,-287.67C52.02,-257.71 60.57,-194.6 78,-144 90.6,-107.41 112.18,-68.14 126.76,-43.58"/>
<polygon fill="black" stroke="black" points="129.81,-45.3 131.97,-34.92 123.81,-41.69 129.81,-45.3"/>
</g>
<!-- c2&#45;⊣&#45;c2&#45;&gt;c2 -->
<g id="edge20" class="edge">
<title>c2&#45;⊣&#45;c2&#45;&gt;c2</title>
<path fill="none" stroke="black" d="M104.93,-396.45C105.73,-404.27 105.94,-413.67 105.58,-422.34"/>
<polygon fill="black" stroke="black" points="102.08,-422.18 104.84,-432.41 109.06,-422.69 102.08,-422.18"/>
</g>
<!-- c2&#45;0&#45;c1&#45;&gt;c1 -->
<g id="edge22" class="edge">
<title>c2&#45;0&#45;c1&#45;&gt;c1</title>
<path fill="none" stroke="black" d="M171,-359.7C171,-351.98 171,-342.71 171,-334.11"/>
<polygon fill="black" stroke="black" points="174.5,-334.1 171,-324.1 167.5,-334.1 174.5,-334.1"/>
</g>
<!-- c2&#45;1&#45;c1&#45;&gt;c1 -->
<g id="edge24" class="edge">
<title>c2&#45;1&#45;c1&#45;&gt;c1</title>
<path fill="none" stroke="black" d="M225.2,-359.7C215.51,-350.28 203.44,-338.53 193.14,-328.53"/>
<polygon fill="black" stroke="black" points="195.3,-325.74 185.69,-321.28 190.42,-330.76 195.3,-325.74"/>
</g>
<!-- p&#45;⊢&#45;p&#45;&gt;p -->
<g id="edge26" class="edge">
<title>p&#45;⊢&#45;p&#45;&gt;p</title>
<path fill="none" stroke="black" d="M54.22,-533.78C79.65,-545.18 117.2,-563.31 142.9,-576.51"/>
<polygon fill="black" stroke="black" points="141.3,-579.62 151.79,-581.13 144.53,-573.41 141.3,-579.62"/>
</g>
<!-- p&#45;⊣&#45;c2&#45;&gt;c2 -->
<g id="edge28" class="edge">
<title>p&#45;⊣&#45;c2&#45;&gt;c2</title>
<path fill="none" stroke="black" d="M99,-503.7C99,-495.98 99,-486.71 99,-478.11"/>
<polygon fill="black" stroke="black" points="102.5,-478.1 99,-468.1 95.5,-478.1 102.5,-478.1"/>
</g>
<!-- p&#45;0&#45;p&#45;&gt;p -->
<g id="edge30" class="edge">
<title>p&#45;0&#45;p&#45;&gt;p</title>
<path fill="none" stroke="black" d="M176.93,-540.45C177.73,-548.27 177.94,-557.67 177.58,-566.34"/>
<polygon fill="black" stroke="black" points="174.08,-566.18 176.84,-576.41 181.06,-566.69 174.08,-566.18"/>
</g>
<!-- p&#45;1&#45;p&#45;&gt;p -->
<g id="edge32" class="edge">
<title>p&#45;1&#45;p&#45;&gt;p</title>
<path fill="none" stroke="black" d="M231.27,-540.14C221.9,-550.28 208.73,-563.15 197.01,-573.66"/>
<polygon fill="black" stroke="black" points="194.42,-571.27 189.19,-580.49 199.02,-576.54 194.42,-571.27"/>
</g>
</g>
</svg>
