<?xml version="1.0" encoding="UTF-8" standalone="no"?>
<!DOCTYPE svg PUBLIC "-//W3C//DTD SVG 1.1//EN"
 "http://www.w3.org/Graphics/SVG/1.1/DTD/svg11.dtd">
<!-- Generated by graphviz version 2.43.0 (0)
 -->
<!-- Title: 2DFA Pages: 1 -->
<svg width="278pt" height="188pt"
 viewBox="0.00 0.00 278.00 188.00" xmlns="http://www.w3.org/2000/svg" xmlns:xlink="http://www.w3.org/1999/xlink">
<g id="graph0" class="graph" transform="scale(1 1) rotate(0) translate(4 184)">
<title>2DFA</title>
<polygon fill="white" stroke="transparent" points="-4,4 -4,-184 274,-184 274,4 -4,4"/>
<!-- ✓ -->
<g id="node1" class="node">
<title>✓</title>
<ellipse fill="#bbeebb" stroke="#00aa00" stroke-width="2" cx="99" cy="-18" rx="27" ry="18"/>
<text text-anchor="middle" x="99" y="-14.3" font-family="Times,serif" font-size="14.00" fill="#00aa00">✓</text>
</g>
<!-- ✗ -->
<g id="node2" class="node">
<title>✗</title>
<ellipse fill="#eebbbb" stroke="#aa0000" stroke-width="2" cx="243" cy="-162" rx="27" ry="18"/>
<text text-anchor="middle" x="243" y="-158.3" font-family="Times,serif" font-size="14.00" fill="#aa0000">✗</text>
</g>
<!-- q -->
<g id="node3" class="node">
<title>q</title>
<ellipse fill="#eeeebb" stroke="#cccc00" stroke-width="2" cx="171" cy="-162" rx="27" ry="18"/>
<text text-anchor="middle" x="171" y="-158.3" font-family="Times,serif" font-size="14.00">q</text>
</g>
<!-- q&#45;⊢&#45;q -->
<g id="node4" class="node">
<title>q&#45;⊢&#45;q</title>
<polygon fill="#ffffff" stroke="#ffffff" points="54,-108 0,-108 0,-72 54,-72 54,-108"/>
<text text-anchor="middle" x="27" y="-86.3" font-family="Times,serif" font-size="14.00">⊢; R</text>
</g>
<!-- q&#45;&gt;q&#45;⊢&#45;q -->
<g id="edge1" class="edge">
<title>q&#45;&gt;q&#45;⊢&#45;q</title>
<path fill="none" stroke="black" d="M148.09,-152.13C122.45,-140.8 81.3,-120.98 54.11,-106.99"/>
</g>
<!-- q&#45;⊣&#45;✓ -->
<g id="node5" class="node">
<title>q&#45;⊣&#45;✓</title>
<polygon fill="#ffffff" stroke="#ffffff" points="126,-108 72,-108 72,-72 126,-72 126,-108"/>
<text text-anchor="middle" x="99" y="-86.3" font-family="Times,serif" font-size="14.00">⊣; L</text>
</g>
<!-- q&#45;&gt;q&#45;⊣&#45;✓ -->
<g id="edge3" class="edge">
<title>q&#45;&gt;q&#45;⊣&#45;✓</title>
<path fill="none" stroke="black" d="M156.43,-146.83C144.92,-135.65 128.83,-120 116.6,-108.11"/>
</g>
<!-- q&#45;0&#45;q -->
<g id="node6" class="node">
<title>q&#45;0&#45;q</title>
<polygon fill="#ffffff" stroke="#ffffff" points="198,-108 144,-108 144,-72 198,-72 198,-108"/>
<text text-anchor="middle" x="171" y="-86.3" font-family="Times,serif" font-size="14.00">0; L</text>
</g>
<!-- q&#45;&gt;q&#45;0&#45;q -->
<g id="edge5" class="edge">
<title>q&#45;&gt;q&#45;0&#45;q</title>
<path fill="none" stroke="black" d="M165.16,-144.41C163.98,-133.58 163.95,-119.45 165.07,-108.45"/>
</g>
<!-- q&#45;1&#45;q -->
<g id="node7" class="node">
<title>q&#45;1&#45;q</title>
<polygon fill="#ffffff" stroke="#ffffff" points="270,-108 216,-108 216,-72 270,-72 270,-108"/>
<text text-anchor="middle" x="243" y="-86.3" font-family="Times,serif" font-size="14.00">1; R</text>
</g>
<!-- q&#45;&gt;q&#45;1&#45;q -->
<g id="edge7" class="edge">
<title>q&#45;&gt;q&#45;1&#45;q</title>
<path fill="none" stroke="black" d="M181.58,-145.12C191.67,-134.06 206.77,-119.34 219.58,-108.04"/>
</g>
<!-- q&#45;⊢&#45;q&#45;&gt;q -->
<g id="edge2" class="edge">
<title>q&#45;⊢&#45;q&#45;&gt;q</title>
<path fill="none" stroke="black" d="M54.22,-101.78C79.65,-113.18 117.2,-131.31 142.9,-144.51"/>
<polygon fill="black" stroke="black" points="141.3,-147.62 151.79,-149.13 144.53,-141.41 141.3,-147.62"/>
</g>
<!-- q&#45;⊣&#45;✓&#45;&gt;✓ -->
<g id="edge4" class="edge">
<title>q&#45;⊣&#45;✓&#45;&gt;✓</title>
<path fill="none" stroke="black" d="M99,-71.7C99,-63.98 99,-54.71 99,-46.11"/>
<polygon fill="black" stroke="black" points="102.5,-46.1 99,-36.1 95.5,-46.1 102.5,-46.1"/>
</g>
<!-- q&#45;0&#45;q&#45;&gt;q -->
<g id="edge6" class="edge">
<title>q&#45;0&#45;q&#45;&gt;q</title>
<path fill="none" stroke="black" d="M176.93,-108.45C177.73,-116.27 177.94,-125.67 177.58,-134.34"/>
<polygon fill="black" stroke="black" points="174.08,-134.18 176.84,-144.41 181.06,-134.69 174.08,-134.18"/>
</g>
<!-- q&#45;1&#45;q&#45;&gt;q -->
<g id="edge8" class="edge">
<title>q&#45;1&#45;q&#45;&gt;q</title>
<path fill="none" stroke="black" d="M231.27,-108.14C221.9,-118.28 208.73,-131.15 197.01,-141.66"/>
<polygon fill="black" stroke="black" points="194.42,-139.27 189.19,-148.49 199.02,-144.54 194.42,-139.27"/>
</g>
</g>
</svg>
